inDegrees=yes
name=ik_OwnShooting_orientations
DataType=double
version=3
OpenSimVersion=4.3-2021-08-27-4bc7ad9
endheader
time	pelvis_tilt	pelvis_list	pelvis_rotation	pelvis_tx	pelvis_ty	pelvis_tz	hip_flexion_r	hip_adduction_r	hip_rotation_r	knee_angle_r	knee_angle_r_beta	ankle_angle_r	subtalar_angle_r	mtp_angle_r	hip_flexion_l	hip_adduction_l	hip_rotation_l	knee_angle_l	knee_angle_l_beta	ankle_angle_l	subtalar_angle_l	mtp_angle_l	lumbar_extension	lumbar_bending	lumbar_rotation	arm_flex_r	arm_add_r	arm_rot_r	elbow_flex_r	pro_sup_r	wrist_flex_r	wrist_dev_r	arm_flex_l	arm_add_l	arm_rot_l	elbow_flex_l	pro_sup_l	wrist_flex_l	wrist_dev_l
7.25	-11.46347414896228	-12.36966625689812	-98.34258846430157	0	0.9399999999999999	0	39.48519978975171	-10.56713980841628	0	58.16416826988647	1.015156242993533	-5.207174801120449	0	0	39.48519978975171	-10.56713980841628	0	58.16416826988647	1.015156242993533	-5.207174801120449	0	0	0.00216042021779384	0.009672440842358267	-0.003214351810566873	-0.0008678200189631369	-0.001060667107069189	0.01209242991249124	77.00224549232772	46.97428640461329	0	0	0	-8.897916807466729	0	77.00224549232772	46.97428640461329	0	0
7.26	-11.06610520137916	-12.52244730424902	-97.51181877861114	0	0.9399999999999999	0	39.4858084774057	-10.56692411673142	0	58.16432779536177	1.015159027238318	-5.207072204739632	0	0	39.4858084774057	-10.56692411673142	0	58.16432779536177	1.015159027238318	-5.207072204739632	0	0	-0.001489529473399665	0.02241574178570662	0.01333526026799555	-0.002003804368604427	-0.02564927484311684	-0.02745714547930283	77.00202552979887	46.97369056206232	0	0	0	-8.898262713903151	0	77.00202552979887	46.97369056206232	0	0
7.27	-10.78121531677394	-12.59836975147168	-96.76460310260009	0	0.9399999999999999	0	39.48669534685778	-10.56660836169207	0	58.16455928278732	1.01516306745607	-5.206921885314027	0	0	39.48669534685778	-10.56660836169207	0	58.16455928278732	1.01516306745607	-5.206921885314027	0	0	-0.0001880770105669038	0.01042936566004161	0.008528384839834148	0.0009015438576132606	-0.01333132093864057	-0.01167517854985659	77.00170505252633	46.97281898818492	0	0	0	-8.898765267853539	0	77.00170505252633	46.97281898818492	0	0
7.28	-10.76843808207516	-12.75649807969705	-96.35413354772467	0	0.9399999999999999	0	39.48741227057058	-10.56635340104868	0	58.16474654001911	1.015166335711313	-5.206800543764746	0	0	39.48741227057058	-10.56635340104868	0	58.16474654001911	1.015166335711313	-5.206800543764746	0	0	0.002131000797837406	0.01056538979565368	0.01079202555325048	-0.00301278029490699	-0.006717799774929274	-0.01095450426996555	77.00144598432732	46.97211505899007	0	0	0	-8.899171738085014	0	77.00144598432732	46.97211505899007	0	0
7.29	-10.87357057873403	-12.7606232094241	-96.66893976414318	0	0.9399999999999999	0	39.4880337460927	-10.56613311088396	0	58.16490927371752	1.015169175950154	-5.206695775607061	0	0	39.4880337460927	-10.56613311088396	0	58.16490927371752	1.015169175950154	-5.206695775607061	0	0	0.0005902951539697661	-0.005289167267954762	-0.005045764359110872	-0.00190716160934119	0.003954011433825008	0.005273579383980216	77.00122140156564	46.97150648529713	0	0	0	-8.899524736169111	0	77.00122140156564	46.97150648529713	0	0
7.3	-11.03229849466781	-12.45871772432367	-97.39832753712908	0	0.9399999999999999	0	39.48854247114874	-10.56595325315548	0	58.16504273713687	1.015171505326253	-5.206610285319513	0	0	39.48854247114874	-10.56595325315548	0	58.16504273713687	1.015171505326253	-5.206610285319513	0	0	-0.002993589701758246	-0.02737552469258539	-0.0249282619111706	0.01056822549768951	0.01518064090693612	0.02923302955910718	77.00103755980292	46.97100936873081	0	0	0	-8.899814094616488	0	77.00103755980292	46.97100936873081	0	0
7.31	-11.26001806168257	-12.18585918237735	-98.31637423177472	0	0.9399999999999999	0	39.48906715175219	-10.56576775488906	0	58.16518036209892	1.015173907334974	-5.206522119059443	0	0	39.48906715175219	-10.56576775488906	0	58.16518036209892	1.015173907334974	-5.206522119059443	0	0	-0.001617769818819307	-0.03675162128567745	-0.03379743363603235	0.01118792570400997	0.02554169075745071	0.0435183305030943	77.0008479521818	46.97049664739388	0	0	0	-8.900112500268511	0	77.0008479521818	46.97049664739388	0	0
7.32	-11.38589198634207	-12.02491142455389	-99.08495085184168	0	0.9399999999999999	0	39.48985431079678	-10.56548800081546	0	58.1653859119703	1.015177494857006	-5.206389028665193	0	0	39.48985431079678	-10.56548800081546	0	58.1653859119703	1.015177494857006	-5.206389028665193	0	0	-0.000912323341534994	-0.01544610062073776	-0.01586720320625294	0.002090732778265479	0.01470515524780735	0.020328621308815	77.00056350292314	46.96972408022335	0	0	0	-8.900558775918743	0	77.00056350292314	46.96972408022335	0	0
7.33	-11.42029976269058	-11.95798035131436	-99.17320990883962	0	0.9399999999999999	0	39.48995308036039	-10.56545518419734	0	58.16541308168138	1.015177969057921	-5.206373625941501	0	0	39.48995308036039	-10.56545518419734	0	58.16541308168138	1.015177969057921	-5.206373625941501	0	0	-0.01107423811348254	-0.02968547444621017	-0.03230294855317442	-0.001972221537279719	0.004766116071417741	0.009070574343589717	77.00052779270374	46.96963235331176	0	0	0	-8.900616907189969	0	77.00052779270374	46.96963235331176	0	0
7.34	-11.25273218802604	-12.13979338777151	-98.85490070014026	0	0.9399999999999999	0	39.49043943516359	-10.56528359985501	0	58.16554082006055	1.015180198513219	-5.206292117418137	0	0	39.49043943516359	-10.56528359985501	0	58.16554082006055	1.015180198513219	-5.206292117418137	0	0	0.0004137941413330867	0.006483957772532296	0.004107466787877441	-0.003369343888040735	-0.004557414826329536	-0.004688864284095291	77.00035203240668	46.96915788323627	0	0	0	-8.900893795894941	0	77.00035203240668	46.96915788323627	0	0
7.35	-10.93158987959096	-12.26643807901743	-98.13741417979368	0	0.9399999999999999	0	39.4911191628283	-10.56504287434939	0	58.16571875162823	1.015183304004919	-5.206177687809611	0	0	39.4911191628283	-10.56504287434939	0	58.16571875162823	1.015183304004919	-5.206177687809611	0	0	-0.0004891044757644737	0.01331693556995482	0.007255826293141314	-0.0004519141032769184	-0.02140509521805349	-0.02477934362360078	77.00010639818356	46.96849264450869	0	0	0	-8.901279868092109	0	77.00010639818356	46.96849264450869	0	0
7.36	-10.62660303856308	-12.38012359847667	-97.32960814476309	0	0.9399999999999999	0	39.49205111389758	-10.56471168021452	0	58.16596195494009	1.015187548703462	-5.206020161706546	0	0	39.49205111389758	-10.56471168021452	0	58.16596195494009	1.015187548703462	-5.206020161706546	0	0	-0.0005549538334792955	0.008560960603946108	0.00667492725632084	0.0003120578636505298	-0.01234861127927794	-0.01169313324697557	76.99976962719732	46.96757791379485	0	0	0	-8.90180805994159	0	76.99976962719732	46.96757791379485	0	0
7.37	-10.43872315241872	-12.44082953494125	-96.77241094637672	0	0.9399999999999999	0	39.49299196449939	-10.56437739133888	0	58.16620745134141	1.015191833423967	-5.205861184654276	0	0	39.49299196449939	-10.56437739133888	0	58.16620745134141	1.015191833423967	-5.205861184654276	0	0	-0.0003617796447218786	0.005596589596394985	0.004297118181095661	0.0003477894905345189	-0.008019863258758343	-0.007310667166059717	76.99942964000805	46.96665456146164	0	0	0	-8.902341279853186	0	76.99942964000805	46.96665456146164	0	0
7.38	-10.49136586884462	-12.7541512857392	-96.34419496294498	0	0.9399999999999999	0	39.49363627230086	-10.56414907885722	0	58.16637589784064	1.015194773369992	-5.205752671681323	0	0	39.49363627230086	-10.56414907885722	0	58.16637589784064	1.015194773369992	-5.205752671681323	0	0	0.00582439556290191	0.006207245010566548	0.009943110271580778	-0.008643204261329281	-0.007638258271024647	-0.0134441001369971	76.99919680716106	46.96602361005858	0	0	0	-8.902706960345116	0	76.99919680716106	46.96602361005858	0	0
7.39	-10.46881026351224	-12.65461434958254	-96.76431527847703	0	0.9399999999999999	0	39.49421836299017	-10.56394313466602	0	58.1665282434556	1.015197432302574	-5.205654825505471	0	0	39.49421836299017	-10.56394313466602	0	58.1665282434556	1.015197432302574	-5.205654825505471	0	0	0.002315000669931488	-0.007923924834875329	-0.005366674757788298	0.002998826177343426	0.002493444538876691	0.01441018639410794	76.99898645515033	46.96545430221258	0	0	0	-8.903037596844003	0	76.99898645515033	46.96545430221258	0	0
7.4	-10.59484252906303	-12.43714556962266	-97.24533495922283	0	0.9399999999999999	0	39.49472012525262	-10.5637662711306	0	58.16665994479424	1.015199730924563	-5.20557086051534	0	0	39.49472012525262	-10.5637662711306	0	58.16665994479424	1.015199730924563	-5.20557086051534	0	0	-0.001876256515330913	-0.01912701646119112	-0.01785470238695427	0.008361037873604652	0.01234581970652864	0.02212124145509113	76.99880512637263	46.96496505390905	0	0	0	-8.903323201666504	0	76.99880512637263	46.96496505390905	0	0
7.41	-10.77386992818598	-12.26566451378473	-98.00822325274571	0	0.9399999999999999	0	39.49526134059155	-10.56357533562213	0	58.16680187429198	1.015202208061604	-5.205480205300378	0	0	39.49526134059155	-10.56357533562213	0	58.16680187429198	1.015202208061604	-5.205480205300378	0	0	-0.0003082151150518825	-0.02807938438261391	-0.02651249692048024	0.00655905487115398	0.01936915111744185	0.03361611313407094	76.9986095413776	46.96443694318885	0	0	0	-8.903631076471273	0	76.9986095413776	46.96443694318885	0	0
7.42	-10.92568886450305	-12.15855321852833	-98.67225838781229	0	0.9399999999999999	0	39.49588635293949	-10.56335443263197	0	58.16696550231988	1.015205063909439	-5.205375291059672	0	0	39.49588635293949	-10.56335443263197	0	58.16696550231988	1.015205063909439	-5.205375291059672	0	0	0.0004147361293140425	-0.02048247276239491	-0.02226215745594256	0.002244558692971426	0.01727589506516925	0.02484601878597734	76.99838367717405	46.96382612238261	0	0	0	-8.903986204695164	0	76.99838367717405	46.96382612238261	0	0
7.43	-10.95214597988516	-12.21571174755587	-99.10168478669048	0	0.9399999999999999	0	39.4966578992232	-10.56308099569422	0	58.1671669969878	1.01520858065482	-5.205245368147792	0	0	39.4966578992232	-10.56308099569422	0	58.1671669969878	1.01520858065482	-5.205245368147792	0	0	0.001768914947065406	-0.01115950239699916	-0.01303245601741647	-0.001613351603892015	0.005533584885808437	0.01089751925029133	76.9981048654552	46.96307037146903	0	0	0	-8.904423843882052	0	76.9981048654552	46.96307037146903	0	0
7.44	-10.86750351319031	-12.20629736471873	-98.81480078125279	0	0.9399999999999999	0	39.49730161669743	-10.56285358011592	0	58.16733551057285	1.015211521771713	-5.205137384706028	0	0	39.49730161669743	-10.56285358011592	0	58.16733551057285	1.015211521771713	-5.205137384706028	0	0	0.001414568386519511	0.004069760524965703	0.003790906135500251	0.001988652538991547	-0.003899991354993864	-0.003966716439607046	76.99787224116565	46.96244145345063	0	0	0	-8.904789612996909	0	76.99787224116565	46.96244145345063	0	0
7.45	-10.60964502789419	-12.29126898676467	-98.32706056444265	0	0.9399999999999999	0	39.4979120484298	-10.56263844466505	0	58.16749558275259	1.01521431555829	-5.205035288622957	0	0	39.4979120484298	-10.56263844466505	0	58.16749558275259	1.01521431555829	-5.205035288622957	0	0	-0.001425052125362885	0.01291095272096737	0.009766188477527339	-0.0007097963152326867	-0.01585362149099562	-0.01755424916670994	76.99765164155214	46.96184621927326	0	0	0	-8.90513690449958	0	76.99765164155214	46.96184621927326	0	0
7.46	-10.3532581176427	-12.35235133168114	-97.7525209244338	0	0.9399999999999999	0	39.49876702283316	-10.56233584660091	0	58.16771895855255	1.015218214201469	-5.204891578480595	0	0	39.49876702283316	-10.56233584660091	0	58.16771895855255	1.015218214201469	-5.204891578480595	0	0	-0.0004678566856506912	0.008755802695539583	0.007149318538590725	0.0008411113208635862	-0.01098303612056294	-0.01014367559209749	76.99734267900226	46.96100958522274	0	0	0	-8.905622071938264	0	76.99734267900226	46.96100958522274	0	0
7.47	-10.20968000169811	-12.47272936982285	-97.13738574632343	0	0.9399999999999999	0	39.49929736964646	-10.56214912799491	0	58.16785809141103	1.015220642527947	-5.204802997317373	0	0	39.49929736964646	-10.56214912799491	0	58.16785809141103	1.015220642527947	-5.204802997317373	0	0	-0.00142479324147681	0.02240463472703503	0.01973554384376274	-0.003602974024335334	-0.01526469303839085	-0.02555959112871375	76.99715101934751	46.96049284902956	0	1.288005874498938e-35	0	-8.905923920876711	0	76.99715101934751	46.96049284902956	0	1.288005874498938e-35
